<?xml version="1.0" standalone="no"?>
 <!DOCTYPE svg PUBLIC "-//W3C//DTD SVG 1.1//EN" 
 "http://www.w3.org/Graphics/SVG/1.1/DTD/svg11.dtd"> 
<svg
  xmlns:svg="http://www.w3.org/2000/svg"
  xmlns="http://www.w3.org/2000/svg"
  xmlns:xlink="http://www.w3.org/1999/xlink"
  version="1.1"
  width="34.9250mm" height="33.3756mm" viewBox="0.0000 0.0000 34.9250 33.3756">
<title>SVG Image created as driving-F_Cu.svg date 2024/05/23 10:57:34 </title>
  <desc>Image generated by PCBNEW </desc>
<g style="fill:#000000; fill-opacity:1.0000;stroke:#000000; stroke-opacity:1.0000;
stroke-linecap:round; stroke-linejoin:round;"
 transform="translate(0 0) scale(1 1)">
</g>
<g style="fill:none; 
stroke:#000000; stroke-width:0.2000; stroke-opacity:1; 
stroke-linecap:round; stroke-linejoin:round;">
<path d="M32.9000 16.7000 A16.4000 16.4000 0.0 0 0 0.1000 16.7000" />
<path d="M32.5000 16.7000 A16.0000 16.0000 0.0 0 0 0.5000 16.7000" />
<path d="M32.1000 16.7000 A15.6000 15.6000 0.0 0 0 0.9000 16.7000" />
<path d="M31.7000 16.7000 A15.2000 15.2000 0.0 0 0 1.3000 16.7000" />
<path d="M31.3000 16.7000 A14.8000 14.8000 0.0 0 0 1.7000 16.7000" />
<path d="M30.9000 16.7000 A14.4000 14.4000 0.0 0 0 2.1000 16.7000" />
<path d="M30.5000 16.7000 A14.0000 14.0000 0.0 0 0 2.5000 16.7000" />
<path d="M30.1000 16.7000 A13.6000 13.6000 0.0 0 0 2.9000 16.7000" />
<path d="M29.7000 16.7000 A13.2000 13.2000 0.0 0 0 3.3000 16.7000" />
<path d="M29.3000 16.7000 A12.8000 12.8000 0.0 0 0 3.7000 16.7000" />
<path d="M28.9000 16.7000 A12.4000 12.4000 0.0 0 0 4.1000 16.7000" />
<path d="M28.5000 16.7000 A12.0000 12.0000 0.0 0 0 4.5000 16.7000" />
<path d="M28.1000 16.7000 A11.6000 11.6000 0.0 0 0 4.9000 16.7000" />
<path d="M27.7000 16.7000 A11.2000 11.2000 0.0 0 0 5.3000 16.7000" />
<path d="M27.1000 16.7000 A10.7000 10.7000 0.0 0 0 5.7000 16.7000" />
<path d="M5.7000 16.7000 A11.0000 11.0000 0.0 0 0 27.7000 16.7000" />
<path d="M5.3000 16.7000 A11.4000 11.4000 0.0 0 0 28.1000 16.7000" />
<path d="M4.9000 16.7000 A11.8000 11.8000 0.0 0 0 28.5000 16.7000" />
<path d="M4.5000 16.7000 A12.2000 12.2000 0.0 0 0 28.9000 16.7000" />
<path d="M4.1000 16.7000 A12.6000 12.6000 0.0 0 0 29.3000 16.7000" />
<path d="M3.7000 16.7000 A13.0000 13.0000 0.0 0 0 29.7000 16.7000" />
<path d="M3.3000 16.7000 A13.4000 13.4000 0.0 0 0 30.1000 16.7000" />
<path d="M2.9000 16.7000 A13.8000 13.8000 0.0 0 0 30.5000 16.7000" />
<path d="M2.5000 16.7000 A14.2000 14.2000 0.0 0 0 30.9000 16.7000" />
<path d="M2.1000 16.7000 A14.6000 14.6000 0.0 0 0 31.3000 16.7000" />
<path d="M1.7000 16.7000 A15.0000 15.0000 0.0 0 0 31.7000 16.7000" />
<path d="M1.3000 16.7000 A15.4000 15.4000 0.0 0 0 32.1000 16.7000" />
<path d="M0.9000 16.7000 A15.8000 15.8000 0.0 0 0 32.5000 16.7000" />
<path d="M0.5000 16.7000 A16.2000 16.2000 0.0 0 0 32.9000 16.7000" />
<path d="M0.1000 16.7000 A16.6000 16.6000 0.0 0 0 33.3000 16.7000" />
<path d="M34.5000 15.5000 A1.2000 1.2000 0.0 0 0 33.3000 16.7000" />
</g>
<g style="fill:#000000; fill-opacity:1.0000; stroke:none;">
<circle cx="34.5000" cy="15.5000" r="0.4500" /> 
</g>
<g style="fill:#000000; fill-opacity:1.0000; stroke:none;">
<circle cx="34.5000" cy="17.9000" r="0.4500" /> 
</g>
<g style="fill:#000000; fill-opacity:1.0000; stroke:none;">
<circle cx="27.1000" cy="16.7000" r="0.3000" /> 
</g>
<g style="fill:#FFFFFF; fill-opacity:1.0000; stroke:none;">
<circle cx="34.5000" cy="15.5000" r="0.2500" /> 
</g>
<g style="fill:#FFFFFF; fill-opacity:1.0000; stroke:none;">
<circle cx="34.5000" cy="17.9000" r="0.2500" /> 
</g>
<g style="fill:#FFFFFF; fill-opacity:1.0000; stroke:none;">
<circle cx="27.1000" cy="16.7000" r="0.1500" /> 
</g> 
</svg>
